<svg id="Capa_1" enable-background="new 0 0 510.057 510.057" height="512" viewBox="0 0 510.057 510.057" width="512" xmlns="http://www.w3.org/2000/svg"><g id="XMLID_41_"><path id="XMLID_40_" d="m491.307 71.133c-24.192-23.296-60.157-39.06-106.896-46.851-29.961-4.995-62.074-5.707-68.28-3.733l-19.487 6.202 78.129 111.028 6.13 8.63 10.186-2.819c.302-.083 30.396-8.205 51.386 3.973 7.2 4.177 15.158 6.213 23.036 6.213 11.666 0 23.156-4.466 31.748-13.057l.308-.308c8.277-8.277 12.596-18.639 12.489-29.964-.13-13.635-6.964-27.964-18.749-39.314z" fill="#fac46d"/><path id="XMLID_36_" d="m409.346 134.779-86.387-122.764c-8.615-12.238-25.332-15.658-38.059-7.792l-82.795 51.179 126.749 157.557 70.435-36.769c7.236-3.778 12.491-10.494 14.418-18.426 1.926-7.932.336-16.31-4.361-22.985z" fill="#eaae56"/><path id="XMLID_132_" d="m147.563 442.473c-12.177-20.991-4.056-51.083-3.985-51.339l2.903-10.237-119.727-84.252-6.203 19.484c-1.976 6.204-1.263 38.321 3.731 68.282 7.791 46.738 23.554 82.703 46.851 106.895 11.35 11.786 25.68 18.62 39.315 18.749.137.001.273.002.41.002 11.165 0 21.376-4.314 29.553-12.491l.308-.308c14.393-14.393 17.207-36.922 6.844-54.785z" fill="#ffde8d"/><path id="XMLID_568_" d="m55.577 201.906-51.353 82.993c-7.869 12.729-4.446 29.446 7.792 38.059l122.763 86.387c4.817 3.39 10.52 5.161 16.303 5.161 2.23 0 4.475-.264 6.683-.8 7.933-1.926 14.648-7.181 18.428-14.421l36.877-70.682z" fill="#fac46d"/><path id="XMLID_638_" d="m326.414 203.557-122.274-143.665c-5.294-6.22-13.011-9.975-21.172-10.303-8.17-.329-16.154 2.797-21.929 8.572l-112.696 112.696c-5.774 5.775-8.898 13.768-8.57 21.929.327 8.161 4.083 15.877 10.303 21.17l143.664 122.275c5.46 4.646 12.235 6.943 18.998 6.943 7.562 0 15.106-2.872 20.775-8.541l101.304-101.303-9.999 10c10.737-10.739 11.438-28.209 1.596-39.773z" fill="#ffde8d"/><path id="XMLID_749_" d="m284.073 284.074 50.744-50.744h.001c10.737-10.738 11.438-28.208 1.596-39.772l-122.274-143.666c-5.294-6.22-13.011-9.975-21.172-10.303-8.17-.329-16.154 2.797-21.929 8.572l-61.439 61.439z" fill="#fac46d"/><g id="XMLID_42_"><path id="XMLID_572_" d="m127.187 96.049h30v91.909h-30z" fill="#fac46d" transform="matrix(.707 -.707 .707 .707 -58.766 142.133)"/></g><g id="XMLID_43_"><path id="XMLID_570_" d="m236.67 205.533h30v91.908h-30z" fill="#fac46d" transform="matrix(.707 -.707 .707 .707 -104.116 251.614)"/></g><g fill="#eaae56"><path id="XMLID_752_" d="m249.363 200.276h15.13v91.908h-15.13z" transform="matrix(.707 -.707 .707 .707 -98.858 253.801)"/><path id="XMLID_757_" d="m139.879 90.792h15.13v91.909h-15.13z" transform="matrix(.707 -.707 .707 .707 -53.509 144.313)"/></g></g></svg>