<?xml version="1.0" encoding="iso-8859-1"?>
<!-- Generator: Adobe Illustrator 19.0.0, SVG Export Plug-In . SVG Version: 6.00 Build 0)  -->
<svg version="1.1" id="Layer_1" xmlns="http://www.w3.org/2000/svg" xmlns:xlink="http://www.w3.org/1999/xlink" x="0px" y="0px"
	 viewBox="0 0 512 512" style="enable-background:new 0 0 512 512;" xml:space="preserve">
<path style="fill:#8D6A59;" d="M264.678,0H247.32c-8.443,0-15.287,6.844-15.287,15.287v180.708h47.932V15.287
	C279.965,6.844,273.121,0,264.678,0z"/>
<path style="opacity:0.1;enable-background:new    ;" d="M232.033,145.143v50.852h47.932v-50.852
	C264.324,149.605,247.674,149.605,232.033,145.143z"/>
<path style="fill:#E3637B;" d="M347.076,146.422c-17.842,0-34.618,4.56-49.228,12.578c-25.976,14.256-57.722,14.256-83.698,0
	c-14.61-8.018-31.386-12.578-49.228-12.578c-56.598,0-102.48,45.882-102.48,102.48c0,3.923,0.228,7.792,0.657,11.6
	c4.917,51.623,37.162,186.236,83.843,223.913c0.05,0.041,0.101,0.081,0.151,0.122c0.346,0.278,0.69,0.571,1.037,0.837l0.021-0.006
	c12.433,9.844,28.136,15.737,45.226,15.737c11.642,0,22.645-2.729,32.407-7.581c19.106-9.497,41.324-9.497,60.43,0
	c9.762,4.852,20.765,7.581,32.407,7.581c17.089,0,32.793-5.893,45.226-15.737l0.021,0.006c0.348-0.267,0.691-0.56,1.037-0.837
	c0.05-0.041,0.101-0.081,0.151-0.122c46.682-37.677,78.926-172.291,83.843-223.913c0.429-3.808,0.658-7.677,0.658-11.6
	C449.556,192.304,403.674,146.422,347.076,146.422z"/>
<path style="opacity:0.1;enable-background:new    ;" d="M374.901,474.571c-0.049,0.041-0.101,0.081-0.15,0.121
	c-0.346,0.278-0.69,0.571-1.037,0.838l-0.021-0.006c-12.433,9.844-28.136,15.737-45.226,15.737c-11.642,0-22.646-2.729-32.407-7.581
	c-19.106-9.497-41.324-9.497-60.43,0c-9.762,4.852-20.765,7.581-32.408,7.581c-17.089,0-32.793-5.893-45.225-15.737l-0.021,0.006
	c-0.348-0.267-0.691-0.56-1.037-0.838c-0.05-0.041-0.101-0.08-0.151-0.121c-46.681-37.677-78.926-172.291-83.843-223.913
	c-0.429-3.808-0.657-7.677-0.657-11.6c0-25.794,9.532-49.359,25.262-67.373c-21.513,18.786-35.108,46.413-35.108,77.218
	c0,3.923,0.228,7.792,0.657,11.6c4.917,51.623,37.162,186.236,83.843,223.913c0.05,0.041,0.101,0.081,0.15,0.122
	c0.346,0.277,0.69,0.571,1.037,0.838l0.021-0.006c12.433,9.843,28.136,15.737,45.225,15.737c11.642,0,22.646-2.729,32.408-7.581
	c19.105-9.497,41.324-9.497,60.43,0c9.762,4.852,20.765,7.581,32.408,7.581c17.089,0,32.793-5.893,45.226-15.737l0.021,0.006
	c0.348-0.267,0.691-0.56,1.037-0.838c0.05-0.041,0.101-0.08,0.151-0.122c3.668-2.961,7.247-6.521,10.73-10.592
	C375.491,474.071,375.197,474.331,374.901,474.571z"/>
<path style="fill:#F5B96E;" d="M360.683,282.776L360.683,282.776c-18.159,15.006-44.187,15.772-63.197,1.86l-11.084-8.112
	c-18.104-13.249-42.702-13.249-60.806,0l-11.084,8.112c-19.01,13.912-45.038,13.146-63.197-1.86l0,0
	c-19.78-16.345-48.576-15.63-67.519,1.678l-0.001,0.001c-15.378,14.05-21.801,35.424-16.645,55.606
	c14.916,58.388,40.027,126.259,72.949,152.831l0.456,0.37c0.316,0.26,0.633,0.518,0.952,0.762l4.195,3.189l0.107-0.027
	c14.015,9.71,30.349,14.814,47.568,14.814c13.08,0,25.615-2.934,37.256-8.72c7.876-3.915,16.647-5.984,25.366-5.984
	c8.719,0,17.49,2.069,25.366,5.984c11.642,5.786,24.177,8.72,37.257,8.72c17.219,0,33.552-5.104,47.566-14.813l0.124,0.031
	l4.171-3.189c0.321-0.246,0.643-0.506,0.961-0.768l0.453-0.368c32.923-26.572,58.033-94.443,72.95-152.831
	c5.156-20.182-1.267-41.556-16.645-55.606l0,0C409.259,267.147,380.462,266.431,360.683,282.776z"/>
<path style="opacity:0.1;enable-background:new    ;" d="M379.189,481.723l-0.454,0.373c-0.319,0.266-0.641,0.53-0.963,0.779
	l-4.18,3.235l-0.125-0.031c-14.044,9.848-30.412,15.026-47.668,15.026c-13.108,0-25.67-2.976-37.336-8.846
	c-7.892-3.971-16.682-6.07-25.42-6.07c-8.737,0-17.528,2.099-25.42,6.07c-11.666,5.87-24.228,8.846-37.336,8.846
	c-17.256,0-33.625-5.178-47.669-15.026l-0.108,0.027l-4.204-3.235c-0.319-0.247-0.637-0.509-0.954-0.773l-0.457-0.375
	c-32.993-26.955-58.157-95.805-73.105-155.034c-2.684-10.634-2.23-21.592,0.979-31.668c-8.66,13.098-11.608,29.425-7.618,45.041
	c14.916,58.388,40.027,126.259,72.949,152.831l0.456,0.37c0.316,0.259,0.634,0.518,0.952,0.762l4.195,3.189l0.107-0.027
	C159.824,506.896,176.158,512,193.378,512c13.08,0,25.615-2.934,37.256-8.72c7.876-3.915,16.648-5.984,25.366-5.984
	c8.719,0,17.49,2.069,25.366,5.984c11.642,5.786,24.177,8.72,37.257,8.72c17.219,0,33.552-5.104,47.566-14.813l0.124,0.031
	l4.171-3.189c0.321-0.246,0.643-0.506,0.961-0.768l0.453-0.368c10.138-8.182,19.533-20.284,28.12-34.815
	C393.479,467.654,386.528,475.727,379.189,481.723z"/>
<path style="fill:#E3637B;" d="M270.441,368.714c-7.976,0-14.442-6.466-14.442-14.442c0,7.976-6.466,14.442-14.442,14.442
	c-4.317,0-8.18-1.904-10.827-4.906v21.461c0,13.956,11.313,25.269,25.269,25.269s25.269-11.313,25.269-25.269v-21.461
	C278.621,366.81,274.758,368.714,270.441,368.714z"/>
<path style="fill:#FFFFFF;" d="M255.999,388.268c-8.929,0-17.074,2.6-23.266,6.874c3.845,9.049,12.814,15.395,23.266,15.395
	c10.452,0,19.42-6.346,23.266-15.395C273.073,390.868,264.928,388.268,255.999,388.268z"/>
<g>
	<path style="fill:#394049;" d="M270.441,376.214c-5.525,0-10.58-2.053-14.442-5.437c-3.862,3.384-8.917,5.437-14.442,5.437
		c-12.099,0-21.942-9.844-21.942-21.942c0-4.143,3.358-7.5,7.5-7.5s7.5,3.357,7.5,7.5c0,3.828,3.114,6.942,6.942,6.942
		s6.942-3.114,6.942-6.942c0-4.143,3.358-7.5,7.5-7.5c4.143,0,7.5,3.357,7.5,7.5c0,3.828,3.114,6.942,6.942,6.942
		c3.827,0,6.941-3.114,6.941-6.942c0-4.143,3.357-7.5,7.5-7.5s7.5,3.357,7.5,7.5C292.383,366.37,282.54,376.214,270.441,376.214z"/>
	<path style="fill:#394049;" d="M166.572,361.772c-4.142,0-7.5-3.357-7.5-7.5V338.55c0-4.143,3.358-7.5,7.5-7.5s7.5,3.357,7.5,7.5
		v15.722C174.072,358.414,170.714,361.772,166.572,361.772z"/>
</g>
<g>
	<path style="fill:#E3637B;" d="M178.94,390.468h-24.738c-4.142,0-7.5-3.357-7.5-7.5s3.358-7.5,7.5-7.5h24.738
		c4.142,0,7.5,3.357,7.5,7.5S183.082,390.468,178.94,390.468z"/>
	<path style="fill:#E3637B;" d="M357.796,390.468h-24.737c-4.143,0-7.5-3.357-7.5-7.5s3.357-7.5,7.5-7.5h24.737
		c4.143,0,7.5,3.357,7.5,7.5S361.939,390.468,357.796,390.468z"/>
</g>
<path style="fill:#394049;" d="M345.427,361.772c-4.142,0-7.5-3.357-7.5-7.5V338.55c0-4.143,3.358-7.5,7.5-7.5
	c4.143,0,7.5,3.357,7.5,7.5v15.722C352.927,358.414,349.569,361.772,345.427,361.772z"/>
<g>
</g>
<g>
</g>
<g>
</g>
<g>
</g>
<g>
</g>
<g>
</g>
<g>
</g>
<g>
</g>
<g>
</g>
<g>
</g>
<g>
</g>
<g>
</g>
<g>
</g>
<g>
</g>
<g>
</g>
</svg>
