<svg id="Capa_1" enable-background="new 0 0 506.003 506.003" height="512" viewBox="0 0 506.003 506.003" width="512" xmlns="http://www.w3.org/2000/svg"><g id="XMLID_800_"><path id="XMLID_130_" d="m448.921 31.278c-3.15-7.475-9.035-13.245-16.571-16.247-15.216-6.06-32.67 1.329-38.907 16.473l-29.247 71.003 33.375 77.973 51.408-125.995c3.113-7.491 3.093-15.732-.058-23.207z" fill="#ff9c5e"/><path id="XMLID_682_" d="m388.782 140.646c-5.166-29.632-31.073-52.228-62.16-52.228h-50.68c-19.196 0-35.837-12.328-41.41-30.678-5.387-17.74-6.998-33.462-7.013-33.604l-2.358-24.136-20.543 12.89c-39.799 24.973-52.803 56.508-55.962 81.49-18.568 8.71-31.828 26.051-35.373 46.263-24.71 8.746-42.154 32.5-42.154 59.513 0 16.854 6.563 32.699 18.481 44.617l4.394 4.394h314.05l4.394-4.394c11.918-11.918 18.481-27.763 18.481-44.617-.001-27.01-17.443-50.761-42.147-59.51z" fill="#ffd0f2"/><path id="XMLID_168_" d="m388.782 140.646c-5.166-29.632-31.073-52.228-62.16-52.228h-50.68c-9.117 0-17.655-2.785-24.707-7.671v168.419h156.818l4.394-4.394c11.918-11.918 18.481-27.763 18.481-44.617 0-27.009-17.442-50.76-42.146-59.509z" fill="#ffa2e5"/><path id="XMLID_24_" d="m70.761 219.166 12.071 286.837h336.394l12.07-286.837z" fill="#f8ffd2"/><path id="XMLID_183_" d="m251.235 219.166v286.837h167.991l12.07-286.837z" fill="#fff1b3"/><path id="XMLID_537_" d="m54.704 216.166h392.649v30h-392.649z" fill="#ffde8d"/><path id="XMLID_598_" d="m426.21 340.114-1.27 30.3c-26.35-4-103.36-12.99-168.03 6.33-30.57 9.13-62.88 12.16-92.31 12.16-36.18 0-68.04-4.59-87.04-8.08l-1.3-31.06c23.91 4.9 102.92 18.4 168.99-1.33 69.31-20.71 147.77-13.08 180.96-8.32z" fill="#ffde8d"/><g fill="#fac46d"><path id="XMLID_181_" d="m251.235 346.724v31.639c1.898-.517 3.79-1.056 5.675-1.619 64.67-19.32 141.68-10.33 168.03-6.33l1.27-30.3c-32.238-4.624-107.186-11.952-174.975 6.61z"/><path id="XMLID_182_" d="m251.235 216.166h196.118v30h-196.118z"/></g></g></svg>