<svg id="Capa_1" enable-background="new 0 0 508.556 508.556" height="512" viewBox="0 0 508.556 508.556" width="512" xmlns="http://www.w3.org/2000/svg"><g id="XMLID_366_"><path id="XMLID_307_" d="m421.672 10.607-10.607-10.607-35.961 35.963-151.75 171.749-187.391 167.393-35.963 35.96 10.607 10.606c55.533 55.534 129.112 86.388 207.182 86.878.634.004 1.257.006 1.891.006 77.428 0 149.979-29.938 204.459-84.418 54.925-54.925 84.903-128.208 84.412-206.349-.491-78.069-31.345-151.648-86.879-207.181z" fill="#76dd00"/><path id="XMLID_1623_" d="m421.672 10.607-10.607-10.607-35.961 35.963-151.75 171.749-8.262 7.381 209.046 209.046c54.925-54.925 84.903-128.208 84.412-206.349-.49-78.071-31.344-151.65-86.878-207.183z" fill="#00cc71"/><path id="XMLID_1140_" d="m361.824 50.993-156.29 154.54-169.571 169.572 11.686 10.58c44.985 40.729 102.746 63.012 163.082 63.012 1.417 0 2.841-.012 4.261-.037 62.154-1.08 120.464-25.755 164.188-69.479 43.725-43.724 58.399-92.034 59.479-154.188 1.075-61.872-35.15-127.958-76.835-174z" fill="#ff3f5c"/><path id="XMLID_1624_" d="m385.684 47.648-10.58-11.686-169.57 169.571 173.646 173.646c43.724-43.724 68.399-102.034 69.479-164.188 1.075-61.87-21.29-121.301-62.975-167.343z" fill="#ff001e"/><path id="XMLID_21_" d="m180.27 360.142c7.846 0 15.363-6.899 15-15-.364-8.127-6.591-15-15-15-7.846 0-15.363 6.899-15 15 .364 8.127 6.591 15 15 15z" fill="#d45f05"/><path id="XMLID_23_" d="m342.7 197.712c7.846 0 15.363-6.899 15-15-.364-8.127-6.591-15-15-15-7.846 0-15.363 6.899-15 15 .364 8.127 6.591 15 15 15z" fill="#a24603"/><path id="XMLID_27_" d="m269.371 356.646c7.846 0 15.363-6.899 15-15-.364-8.127-6.591-15-15-15-7.846 0-15.363 6.899-15 15 .364 8.127 6.591 15 15 15z" fill="#d45f05"/><path id="XMLID_28_" d="m351.646 284.371c7.846 0 15.363-6.899 15-15-.364-8.127-6.591-15-15-15-7.846 0-15.363 6.899-15 15 .364 8.128 6.591 15 15 15z" fill="#a24603"/><path id="XMLID_30_" d="m267.044 281.371c7.846 0 15.363-6.899 15-15-.364-8.127-6.591-15-15-15-7.846 0-15.363 6.899-15 15 .364 8.128 6.591 15 15 15z" fill="#d45f05"/><path id="XMLID_1630_" d="m277.245 277.245c3.025-2.763 4.989-6.649 4.799-10.873-.364-8.127-6.591-15-15-15-4.072 0-8.045 1.868-10.884 4.788z" fill="#a24603"/></g></svg>