<?xml version="1.0" encoding="iso-8859-1"?>
<!-- Generator: Adobe Illustrator 19.0.0, SVG Export Plug-In . SVG Version: 6.00 Build 0)  -->
<svg version="1.1" id="Capa_1" xmlns="http://www.w3.org/2000/svg" xmlns:xlink="http://www.w3.org/1999/xlink" x="0px" y="0px"
	 viewBox="0 0 512 512" style="enable-background:new 0 0 512 512;" xml:space="preserve">
<path style="fill:#77DD00;" d="M232.676,452.757c-2.969-25.021-2.903-50.309,0.195-75.314l5.022-40.539H163.86l4.969,43.191
	c2.675,23.255,2.732,46.737,0.169,70.005l-5.011,45.486c-0.076,0.379-0.126,0.76-0.126,1.146c0,7.992,16.573,14.47,37.016,14.47
	c20.444,0,37.016-6.479,37.016-14.47c0-0.43-0.057-0.854-0.151-1.274L232.676,452.757z"/>
<path style="fill:#73CC00;" d="M232.676,452.757c-2.969-25.021-2.903-50.309,0.195-75.314l5.022-40.539h-46.79H163.86l1.311,11.394
	c1.662,2.381,4.84,4.517,9.103,6.241c8.209,3.319,22.18,11.71,21.091,20.497l-0.298,2.407c-3.098,25.006-3.163,50.294-0.195,75.315
	l5.066,42.7c0.939,7.283-9.726,11.277-22.456,12.486c6.377,2.036,14.52,3.258,23.395,3.258c20.444,0,37.016-6.479,37.016-14.47
	c0-0.43-0.057-0.854-0.151-1.274L232.676,452.757z"/>
<path style="fill:#77DD00;" d="M232.676,291.745c-2.969-25.021-2.903-50.309,0.195-75.314l5.022-40.539H163.86l4.969,43.191
	c2.675,23.255,2.732,46.737,0.169,70.005l-5.011,45.486c-0.076,0.379-0.126,0.76-0.126,1.146c0,7.992,16.573,14.47,37.016,14.47
	c20.444,0,37.016-6.479,37.016-14.47c0-0.43-0.057-0.854-0.151-1.274L232.676,291.745z"/>
<path style="fill:#73CC00;" d="M232.676,291.745c-2.969-25.021-2.903-50.309,0.195-75.314l5.022-40.539h-46.79H163.86l1.311,11.394
	c1.662,2.381,4.84,4.517,9.103,6.241c8.209,3.318,22.18,11.71,21.091,20.497l-0.298,2.407c-3.098,25.006-3.163,50.294-0.195,75.315
	l5.066,42.7c0.939,7.283-9.726,11.277-22.456,12.486c6.377,2.036,14.52,3.258,23.395,3.258c20.444,0,37.016-6.479,37.016-14.47
	c0-0.43-0.057-0.854-0.151-1.274L232.676,291.745z"/>
<path style="fill:#77DD00;" d="M232.676,130.734c-2.969-25.021-2.903-50.309,0.195-75.314l5.022-40.539H163.86l4.969,43.191
	c2.675,23.255,2.732,46.737,0.169,70.005l-5.011,45.486c-0.076,0.379-0.126,0.76-0.126,1.146c0,7.992,16.573,14.47,37.016,14.47
	c20.444,0,37.016-6.479,37.016-14.47c0-0.43-0.057-0.854-0.151-1.274L232.676,130.734z"/>
<path style="fill:#73CC00;" d="M232.676,130.734c-2.969-25.021-2.903-50.309,0.195-75.314l5.022-40.539h-46.79H163.86l1.311,11.394
	c1.662,2.381,4.84,4.517,9.103,6.241c8.209,3.319,22.18,11.71,21.091,20.497l-0.298,2.407c-3.098,25.006-3.163,50.294-0.195,75.315
	l5.066,42.7c0.939,7.283-9.726,11.277-22.456,12.486c6.377,2.036,14.52,3.258,23.395,3.258c20.444,0,37.016-6.479,37.016-14.47
	c0-0.43-0.057-0.854-0.151-1.274L232.676,130.734z"/>
<ellipse style="fill:#B6FA4C;" cx="200.88" cy="14.47" rx="37.02" ry="14.47"/>
<path style="fill:#73CC00;" d="M173.621,178.816l-44.664-44.664c-2.478-2.478-6.496-2.478-8.973,0c-2.478,2.478-2.478,6.496,0,8.973
	l26.007,26.007l-34.176,9.354c-3.38,0.925-5.37,4.415-4.445,7.795c0.772,2.819,3.328,4.672,6.116,4.672
	c0.554,0,1.118-0.073,1.679-0.227l41.155-11.264l8.327,8.327c1.239,1.239,2.863,1.859,4.487,1.859s3.248-0.62,4.487-1.859
	C176.099,185.311,176.099,181.293,173.621,178.816z"/>
<g>
	<path style="fill:#B6FA4C;" d="M27.85,41.45c0,0,54.286,17.385,87.61,54.19s24.905,58.325,24.905,58.325
		s-21.52,8.419-58.325-24.905C45.234,95.736,27.85,41.45,27.85,41.45z"/>
	<path style="fill:#B6FA4C;" d="M11.376,211.995c0,0,31.981-29.355,68.901-37.516c36.921-8.161,47.981,5.527,47.981,5.527
		s-2.549,17.413-38.48,29.19C53.848,220.974,11.376,211.995,11.376,211.995z"/>
</g>
<g>
	<path style="fill:#77DD00;" d="M131.815,154.879c5.591,0.24,8.548-0.914,8.549-0.914l0,0l0,0c0-0.001,0.975-2.498,0.947-7.24
		L49.597,64.233L131.815,154.879z"/>
	<path style="fill:#77DD00;" d="M26.134,208.425l97.905-20.128c3.709-4.852,4.22-8.291,4.22-8.291s-1.781-2.194-6.278-4.302
		L26.134,208.425z"/>
</g>
<path style="fill:#73CC00;" d="M338.379,340.926l44.664-44.664c2.478-2.478,6.496-2.478,8.973,0c2.478,2.478,2.478,6.496,0,8.973
	l-26.007,26.007l34.176,9.354c3.38,0.925,5.37,4.415,4.445,7.795c-0.772,2.819-3.328,4.672-6.116,4.672
	c-0.554,0-1.118-0.073-1.679-0.227l-41.155-11.264l-8.327,8.327c-1.239,1.239-2.863,1.859-4.487,1.859s-3.248-0.62-4.487-1.859
	C335.901,347.422,335.901,343.404,338.379,340.926z"/>
<g>
	<path style="fill:#B6FA4C;" d="M484.15,203.561c0,0-54.286,17.385-87.61,54.19s-24.905,58.325-24.905,58.325
		s21.52,8.419,58.325-24.905C466.766,257.847,484.15,203.561,484.15,203.561z"/>
	<path style="fill:#B6FA4C;" d="M500.624,374.106c0,0-31.981-29.355-68.901-37.516c-36.921-8.161-47.981,5.527-47.981,5.527
		s2.549,17.413,38.48,29.19C458.152,383.084,500.624,374.106,500.624,374.106z"/>
</g>
<g>
	<path style="fill:#77DD00;" d="M380.185,316.99c-5.591,0.24-8.548-0.914-8.549-0.914l0,0l0,0c0-0.001-0.975-2.498-0.947-7.24
		l91.714-82.492L380.185,316.99z"/>
	<path style="fill:#77DD00;" d="M485.866,370.536l-97.905-20.128c-3.709-4.852-4.22-8.291-4.22-8.291s1.781-2.194,6.278-4.302
		L485.866,370.536z"/>
	<path style="fill:#77DD00;" d="M346.332,453.555c-2.969-25.021-2.903-50.309,0.195-75.314l5.022-40.539h-74.033l4.969,43.191
		c2.675,23.255,2.732,46.737,0.169,70.005l-5.011,45.486c-0.076,0.379-0.126,0.76-0.126,1.146c0,7.992,16.573,14.47,37.016,14.47
		c20.444,0,37.016-6.479,37.016-14.47c0-0.43-0.057-0.854-0.151-1.274L346.332,453.555z"/>
</g>
<path style="fill:#73CC00;" d="M346.332,453.555c-2.969-25.021-2.903-50.309,0.195-75.314l5.022-40.539h-46.79h-27.242l1.311,11.394
	c1.662,2.381,4.84,4.517,9.103,6.241c8.209,3.319,22.18,11.71,21.091,20.497l-0.298,2.407c-3.098,25.006-3.163,50.294-0.195,75.315
	l5.066,42.7c0.939,7.283-9.726,11.277-22.456,12.486c6.377,2.036,14.52,3.258,23.395,3.258c20.444,0,37.016-6.479,37.016-14.47
	c0-0.43-0.057-0.854-0.151-1.274L346.332,453.555z"/>
<path style="fill:#77DD00;" d="M346.332,292.543c-2.969-25.021-2.903-50.309,0.195-75.314l5.022-40.539h-74.033l4.969,43.191
	c2.675,23.255,2.732,46.737,0.169,70.005l-5.011,45.486c-0.076,0.379-0.126,0.76-0.126,1.146c0,7.992,16.573,14.47,37.016,14.47
	c20.444,0,37.016-6.479,37.016-14.47c0-0.43-0.057-0.854-0.151-1.274L346.332,292.543z"/>
<path style="fill:#73CC00;" d="M346.332,292.543c-2.969-25.021-2.903-50.309,0.195-75.314l5.022-40.539h-46.79h-27.242l1.311,11.394
	c1.662,2.381,4.84,4.517,9.103,6.241c8.209,3.318,22.18,11.71,21.091,20.497l-0.298,2.407c-3.098,25.006-3.163,50.294-0.195,75.315
	l5.066,42.7c0.939,7.283-9.726,11.277-22.456,12.486c6.377,2.036,14.52,3.258,23.395,3.258c20.444,0,37.016-6.479,37.016-14.47
	c0-0.43-0.057-0.854-0.151-1.274L346.332,292.543z"/>
<ellipse style="fill:#B6FA4C;" cx="314.53" cy="176.28" rx="37.02" ry="14.47"/>
<g>
</g>
<g>
</g>
<g>
</g>
<g>
</g>
<g>
</g>
<g>
</g>
<g>
</g>
<g>
</g>
<g>
</g>
<g>
</g>
<g>
</g>
<g>
</g>
<g>
</g>
<g>
</g>
<g>
</g>
</svg>
