<svg height="511pt" viewBox="-3 1 511 511.99899" width="511pt" xmlns="http://www.w3.org/2000/svg"><path d="m160.921875 190.191406c-26.644531 0-53.289063 0-79.933594 0 8.332031-52.046875 8.332031-105.0625 0-157.105468h79.933594c-8.332031 52.042968-8.332031 105.058593 0 157.105468zm0 0" fill="#79a879"/><path d="m160.921875 347.292969c-26.644531 0-53.289063 0-79.933594 0 8.332031-52.042969 8.332031-105.058594 0-157.101563h79.933594c-8.332031 52.042969-8.332031 105.058594 0 157.101563zm0 0" fill="#79a879"/><path d="m160.921875 504.394531c-26.644531 0-53.289063 0-79.933594 0 8.332031-52.042969 8.332031-105.058593 0-157.101562h79.933594c-8.332031 52.042969-8.332031 105.058593 0 157.101562zm0 0" fill="#79a879"/><path d="m109.902344 504.394531h-28.914063c8.335938-52.042969 8.335938-105.054687 0-157.097656h28.914063c2.3125 52.042969 2.3125 105.054687 0 157.097656zm0 0" fill="#5d895d"/><path d="m109.902344 347.292969h-28.914063c8.335938-52.042969 8.335938-105.058594 0-157.097657h28.914063c2.3125 52.039063 2.3125 105.054688 0 157.097657zm0 0" fill="#5d895d"/><path d="m109.902344 190.191406h-28.914063c8.335938-52.042968 8.335938-105.058594 0-157.097656h28.914063c2.3125 52.039062 2.3125 105.054688 0 157.097656zm0 0" fill="#5d895d"/><path d="m315.410156 173.199219c-26.644531 0-53.289062 0-79.933594 0 8.332032-54.855469 8.332032-110.738281 0-165.59375h79.933594c-8.332031 54.855469-8.332031 110.738281 0 165.59375zm0 0" fill="#79a879"/><path d="m315.410156 338.796875c-26.644531 0-53.289062 0-79.933594 0 8.332032-54.855469 8.332032-110.738281 0-165.59375h79.933594c-8.332031 54.855469-8.332031 110.738281 0 165.59375zm0 0" fill="#79a879"/><path d="m315.410156 504.394531c-26.644531 0-53.289062 0-79.933594 0 8.332032-54.855469 8.332032-110.738281 0-165.597656h79.933594c-8.332031 54.859375-8.332031 110.742187 0 165.597656zm0 0" fill="#79a879"/><path d="m264.394531 504.394531h-28.917969c8.335938-54.855469 8.335938-110.738281 0-165.589843h28.917969c2.3125 54.855468 2.3125 110.734374 0 165.589843zm0 0" fill="#5d895d"/><path d="m264.394531 338.796875h-28.917969c8.335938-54.855469 8.335938-110.734375 0-165.589844h28.917969c2.3125 54.855469 2.3125 110.734375 0 165.589844zm0 0" fill="#5d895d"/><path d="m264.394531 173.199219h-28.917969c8.335938-54.855469 8.335938-110.734375 0-165.589844h28.917969c2.3125 54.855469 2.3125 110.734375 0 165.589844zm0 0" fill="#5d895d"/><path d="m441.015625 338.796875c-26.644531 0-53.289063 0-79.933594 0 8.332031-54.855469 8.332031-110.738281 0-165.59375h79.933594c-8.332031 54.855469-8.332031 110.738281 0 165.59375zm0 0" fill="#79a879"/><path d="m441.015625 504.394531c-26.644531 0-53.289063 0-79.933594 0 8.332031-54.855469 8.332031-110.738281 0-165.597656h79.933594c-8.332031 54.859375-8.332031 110.742187 0 165.597656zm0 0" fill="#79a879"/><path d="m390 504.394531h-28.917969c8.335938-54.855469 8.335938-110.738281 0-165.589843h28.917969c2.308594 54.855468 2.308594 110.734374 0 165.589843zm0 0" fill="#5d895d"/><path d="m390 338.796875h-28.917969c8.335938-54.855469 8.335938-110.734375 0-165.589844h28.917969c2.308594 54.855469 2.308594 110.734375 0 165.589844zm0 0" fill="#5d895d"/><g fill="#82d182"><path d="m18.121094 289.011719c12.8125 28.179687 35.933594 48.40625 62.867187 58.28125 10.265625-26.789063 10.226563-57.507813-2.585937-85.6875-12.8125-28.175781-35.933594-48.402344-62.867188-58.277344-10.265625 26.785156-10.226562 57.507813 2.585938 85.683594zm0 0"/><path d="m210.847656 143.910156c-10.175781 22.375-28.535156 38.4375-49.925781 46.28125-8.152344-21.273437-8.117187-45.671875 2.054687-68.046875 10.175782-22.375 28.535157-38.4375 49.925782-46.28125 8.152344 21.273438 8.117187 45.667969-2.054688 68.046875zm0 0"/><path d="m490.941406 126.921875c-10.171875 22.375-28.535156 38.4375-49.921875 46.28125-8.15625-21.273437-8.121093-45.671875 2.050781-68.046875 10.175782-22.375 28.539063-38.4375 49.925782-46.28125 8.152344 21.273438 8.117187 45.667969-2.054688 68.046875zm0 0"/><path d="m378.277344 446.117188c-12.808594 28.175781-35.929688 48.402343-62.867188 58.277343-10.261718-26.789062-10.222656-57.507812 2.589844-85.6875 12.808594-28.175781 35.929688-48.402343 62.867188-58.277343 10.261718 26.789062 10.222656 57.507812-2.589844 85.6875zm0 0"/><path d="m196.847656 302.984375c7.871094 17.316406 22.078125 29.746094 38.628906 35.8125 6.308594-16.460937 6.285157-35.339844-1.585937-52.652344-7.875-17.316406-22.082031-29.746093-38.632813-35.8125-6.308593 16.460938-6.285156 35.335938 1.589844 52.652344zm0 0"/></g><path d="m168.429688 346.09375c-7.988282-49.914062-8.1875-100.503906-.636719-150.441406 22.269531-9.359375 39.914062-26.46875 49.976562-48.597656 10.691407-23.515626 11.484375-49.765626 2.230469-73.910157-1.488281-3.882812-5.816406-5.851562-9.714844-4.421875-20.113281 7.375-36.765625 20.90625-47.972656 38.703125.210938-24.496093 2.25-48.96875 6.121094-73.132812.351562-2.199219-.277344-4.441407-1.71875-6.132813-1.445313-1.695312-3.5625-2.671875-5.789063-2.671875h-79.933593c-2.226563 0-4.339844.976563-5.785157 2.667969-1.445312 1.695312-2.074219 3.9375-1.722656 6.136719 4.15625 25.945312 6.222656 52.425781 6.140625 78.699219-.011719 4.199218 3.382812 7.613281 7.582031 7.625h.023438c4.1875 0 7.589843-3.386719 7.601562-7.578126.074219-24.125-1.605469-48.417968-5-72.34375h62.253907c-4.949219 34.832032-6.234376 70.222657-3.832032 105.351563-1.625 12.144531-.875 24.511719 2.261719 36.539063h-60.695313c1.820313-12.847657 3.164063-25.828126 3.980469-38.703126.265625-4.191406-2.914062-7.804687-7.105469-8.070312-4.210937-.265625-7.804687 2.914062-8.074218 7.105469-.972656 15.34375-2.703125 30.84375-5.140625 46.070312-.125.796875-.125 1.605469 0 2.402344 2.921875 18.261719 4.800781 36.726563 5.640625 55.226563-13.871094-23.277344-35.121094-40.949219-60.96875-50.425782-3.898438-1.433594-8.230469.535156-9.714844 4.417969-11.464844 29.90625-10.484375 62.417969 2.761719 91.550781 12.613281 27.746094 34.859375 49.117188 62.925781 60.613282 7.546875 49.9375 7.347656 100.519531-.640625 150.417968-.355469 2.199219.277344 4.441406 1.71875 6.136719 1.445313 1.695313 3.5625 2.667969 5.789063 2.667969h79.929687c2.226563 0 4.34375-.972656 5.789063-2.667969 1.441406-1.695313 2.074218-3.9375 1.71875-6.136719-4.078126-25.492187-6.148438-51.511718-6.148438-77.34375 0-25.84375 2.070312-51.867187 6.148438-77.347656.128906-.796875.128906-1.609375 0-2.40625zm1.46875-220.800781c7.902343-17.378907 21.363281-31.082031 38.367187-39.230469 5.035156 18.167969 3.5625 37.320312-4.339844 54.699219-7.902343 17.378906-21.363281 31.082031-38.367187 39.230469-5.035156-18.167969-3.5625-37.320313 4.339844-54.699219zm-93.492188 211.914062c-22.824219-10.320312-40.894531-28.316406-51.363281-51.339843-10.464844-23.027344-12.148438-48.472657-4.921875-72.457032 22.820312 10.324219 40.894531 28.320313 51.359375 51.34375 3.75 8.246094 6.351562 16.808594 7.839843 25.496094.027344.152344.050782.300781.082032.445312 2.574218 15.433594 1.59375 31.269532-2.996094 46.511719zm75.6875-139.414062c-6.699219 47.121093-6.691406 94.769531.007812 141.898437h-60.585937c4.777344-16.847656 5.746094-34.285156 2.933594-51.296875 1.175781-30.203125-.378907-60.632812-4.628907-90.601562zm-.007812 298.996093h-62.257813c6.699219-47.121093 6.695313-94.765624-.003906-141.890624h62.277343c-3.328124 23.449218-5.03125 47.273437-5.03125 70.949218.003907 23.664063 1.6875 47.488282 5.015626 70.941406zm0 0"/><path d="m500.09375 56.15625c-1.484375-3.882812-5.816406-5.851562-9.714844-4.421875-24.277344 8.902344-43.535156 26.753906-54.230468 50.273437-9.183594 20.203126-11.054688 42.421876-5.539063 63.589844h-69.527344c-2.214843 0-4.320312.964844-5.765625 2.644532-1.445312 1.679687-2.085937 3.910156-1.753906 6.101562 8.21875 54.089844 8.230469 108.941406.042969 163.035156-.15625.828125-.179688 1.691406-.046875 2.5625 1.203125 7.890625 2.222656 15.890625 3.070312 23.847656-16.246094 10.003907-29.777344 23.734376-39.570312 40.296876.695312-21.5 2.648437-42.953126 5.867187-64.144532.113281-.757812.113281-1.527344 0-2.28125-8.207031-54.09375-8.222656-108.949218-.042969-163.046875.15625-.824219.175782-1.6875.046876-2.554687-8.230469-54.183594-8.230469-109.128906 0-163.3125.332031-2.191406-.308594-4.417969-1.753907-6.097656-1.445312-1.679688-3.546875-2.648438-5.765625-2.648438h-79.933594c-2.214843 0-4.320312.96875-5.765624 2.648438-1.445313 1.679687-2.082032 3.90625-1.75 6.097656 8.214843 54.089844 8.226562 108.941406.042968 163.035156-.160156.824219-.179687 1.691406-.046875 2.554688 4.851563 31.917968 6.832031 64.265624 5.945313 96.558593-8.804688-12.640625-21.234375-22.28125-36.03125-27.703125-3.898438-1.433594-8.230469.535156-9.714844 4.417969-7.328125 19.117187-6.699219 39.898437 1.765625 58.523437 7.824219 17.207032 21.449219 30.570313 38.640625 38.0625 7.597656 52.796876 7.410156 106.285157-.605469 159.054688-.335937 2.191406.304688 4.417969 1.75 6.097656 1.445313 1.683594 3.550781 2.648438 5.765625 2.648438h79.902344c.011719 0 .023438.003906.039062.003906.867188 0 1.75-.152344 2.613282-.46875 13.96875-5.117188 26.589844-12.632812 37.433594-22.128906-.582032 4.636718-1.203126 9.261718-1.902344 13.847656-.332032 2.191406.308594 4.417969 1.753906 6.097656 1.445312 1.683594 3.550781 2.648438 5.765625 2.648438h79.933594c2.214843 0 4.320312-.96875 5.765625-2.648438 1.445312-1.679687 2.085937-3.90625 1.753906-6.097656-5.378906-35.394531-7.246094-71.460938-5.5625-107.195312.199219-4.195313-3.039062-7.757813-7.234375-7.953126-4.191406-.210937-7.757813 3.042969-7.953125 7.234376-1.597656 33.796874-.097656 67.882812 4.457031 101.449218h-62.382812c1.179687-8.71875 2.152343-17.519531 2.917969-26.277344 4.808593-6.5625 8.980468-13.664062 12.429687-21.246093 13.242187-29.132813 14.226563-61.644531 2.765625-91.554688-1.488281-3.882812-5.816406-5.851562-9.71875-4.417969-2.433594.894532-4.8125 1.882813-7.160156 2.917969-.386719-3.269531-.792969-6.542969-1.238282-9.804687h62.394532c-.820313 6.058594-1.550782 12.144531-2.175782 18.191406-.425781 4.179688 2.613282 7.914062 6.789063 8.339844 4.167969.421875 7.910156-2.609375 8.339844-6.785156.886719-8.621094 1.992187-17.335938 3.285156-25.902344.160156-.835938.1875-1.710938.050781-2.59375-8.011718-52.75-8.199218-106.21875-.609375-159.007813 22.253907-9.363281 39.886719-26.464843 49.941407-48.578125 10.691406-23.515625 11.480468-49.765625 2.226562-73.910156zm-269.335938 272.257812c-11.90625-6.214843-21.339843-16.148437-26.988281-28.578124-5.652343-12.425782-6.933593-26.0625-3.792969-39.125 11.90625 6.21875 21.339844 16.148437 26.992188 28.578124 2.496094 5.496094 4.136719 11.226563 4.921875 17.039063.019531.242187.046875.484375.085937.722656.871094 7.105469.476563 14.316407-1.21875 21.363281zm71.289063 116.515626c-2.925781 17.1875-1.992187 34.824218 2.835937 51.859374h-60.632812c6.785156-49.945312 6.777344-100.449218-.007812-150.386718h62.398437c-4.414063 32.558594-5.960937 65.65625-4.59375 98.527344zm-56.328125-113.734376c1.945312-8.460937 2.40625-17.105468 1.402344-25.625 3.699218-41.554687 2.734375-83.476562-2.875-124.765624h62.40625c-6.773438 49.941406-6.773438 100.449218 0 150.390624zm-1.480469-165.597656c6.78125-49.945312 6.796875-100.449218.015625-150.390625h62.382813c-6.785157 49.945313-6.769531 100.445313.015625 150.390625zm127.121094 277.371094c-10.46875 23.023438-28.542969 41.019531-51.363281 51.34375-7.222656-23.984375-5.542969-49.433594 4.921875-72.457031 10.46875-23.023438 28.539062-41.019531 51.363281-51.34375 7.222656 23.984375 5.542969 49.433593-4.921875 72.457031zm-1.515625-111.773438c6.78125-49.941406 6.796875-100.445312.015625-150.390624h62.382813c-6.785157 49.941406-6.769532 100.449218.015624 150.390624zm114.175781-207.421874c-7.898437 17.378906-21.363281 31.082031-38.367187 39.230468-5.035156-18.171875-3.5625-37.320312 4.339844-54.699218 7.902343-17.378907 21.363281-31.082032 38.367187-39.230469 5.035156 18.167969 3.5625 37.320312-4.339844 54.699219zm0 0"/></svg>