<svg id="Capa_1" enable-background="new 0 0 512.586 512.586" height="512" viewBox="0 0 512.586 512.586" width="512" xmlns="http://www.w3.org/2000/svg"><g id="XMLID_271_"><path id="XMLID_1049_" d="m44.534 301.871-10 30v61.594h450v-61.594l-10-30z" fill="#d45f05"/><path id="XMLID_412_" d="m474.534 301.871h-215v91.594h225v-61.594z" fill="#a24603"/><path id="XMLID_7_" d="m15.9 390.677 25.401 94.073h429.983l25.401-94.073z" fill="#ffde8d"/><path id="XMLID_382_" d="m259.534 390.677v94.073h211.75l25.401-94.073z" fill="#fac46d"/><path id="XMLID_10_" d="m0 385.677h512.586v30h-512.586z" fill="#fff1b3"/><path id="XMLID_465_" d="m259.534 385.677h253.052v30h-253.052z" fill="#ffde8d"/><path id="XMLID_97_" d="m437.493 27.836-78.51 136.681-.623 48.166h50.344l86.977-151.424z" fill="#ff9c5e"/><path id="XMLID_106_" d="m495.684 61.257-20.53 35.74-91.61 24.77 21.13-36.79 89.96-24.32z" fill="#fe7816"/><path id="XMLID_104_" d="m455.574 131.087-21.13 36.79-75.77 20.48.31-23.84 4.98-8.67z" fill="#fe7816"/><path id="XMLID_1291_" d="m357.268 143.383c-3.089-12.783-11.488-23.742-23.028-30.042-2.798-17.147-12.349-38.003-38.794-54.598l-20.542-12.89-2.359 24.137c-.01.097-1.042 10.002-4.417 21.118-3.006 9.896-11.982 16.546-22.338 16.546h-33.346c-21.96 0-40.425 15.255-45.356 35.723-2.887 1.227-5.653 2.743-8.233 4.523-.851.587-1.716 1.243-2.561 1.941-10.451 8.616-16.445 21.526-16.445 35.419v38.423h227.777l4.394-4.394c8.811-8.812 13.663-20.525 13.663-32.985-.001-18.951-11.617-35.732-28.415-42.921z" fill="#f8ffd2"/><path id="XMLID_612_" d="m357.268 143.383c-3.089-12.783-11.488-23.742-23.028-30.042-2.798-17.147-12.349-38.003-38.794-54.598l-20.542-12.89-2.359 24.137c-.01.097-1.042 10.002-4.417 21.118-1.525 5.022-4.593 9.202-8.593 12.107v120.469h108.091l4.394-4.394c8.811-8.812 13.663-20.525 13.663-32.985-.001-18.952-11.617-35.733-28.415-42.922z" fill="#fff1b3"/><path id="XMLID_1273_" d="m34.534 193.683h450v91.594h-450z" fill="#ffde8d"/><path id="XMLID_411_" d="m259.534 193.683h225v91.594h-225z" fill="#fac46d"/><path id="XMLID_1050_" d="m34.534 261.424h450v70.447h-450z" fill="#ff9c5e"/><path id="XMLID_413_" d="m34.534 261.424h450v70.447h-450z" fill="#ff9c5e"/><path id="XMLID_377_" d="m259.534 261.424h225v70.447h-225z" fill="#fe7816"/></g></svg>