<?xml version="1.0" encoding="iso-8859-1"?>
<!-- Generator: Adobe Illustrator 19.0.0, SVG Export Plug-In . SVG Version: 6.00 Build 0)  -->
<svg version="1.1" id="Layer_1" xmlns="http://www.w3.org/2000/svg" xmlns:xlink="http://www.w3.org/1999/xlink" x="0px" y="0px"
	 viewBox="0 0 512 512" style="enable-background:new 0 0 512 512;" xml:space="preserve">
<path style="fill:#F5B96E;" d="M256,473.739c153.036,0,194.809-2.695,227.9-44.325C578.112,310.889,418.471,38.261,256,38.261
	S-66.112,310.889,28.1,429.414C61.191,471.045,102.965,473.739,256,473.739z"/>
<path style="opacity:0.1;enable-background:new    ;" d="M55.634,426.742c-66.967-84.249-16.687-239.669,75.503-338.205
	C26.333,172.981-40.933,342.566,28.1,429.414c26.936,33.887,59.63,41.975,153.396,43.812
	C110.259,469.36,80.669,458.238,55.634,426.742z"/>
<path style="fill:#E3637B;" d="M273.976,257.395c-9.928,0-17.976-8.048-17.976-17.976c0,9.928-8.048,17.976-17.976,17.976
	c-5.373,0-10.182-2.37-13.476-6.107V278c0,17.37,14.081,31.452,31.452,31.452S287.452,295.37,287.452,278v-26.712
	C284.158,255.025,279.349,257.395,273.976,257.395z"/>
<path style="fill:#FFFFFF;" d="M256,281.734c-11.114,0-21.252,3.236-28.959,8.556c4.786,11.263,15.95,19.161,28.959,19.161
	s24.172-7.899,28.958-19.161C277.252,284.971,267.114,281.734,256,281.734z"/>
<g>
	<path style="fill:#394049;" d="M163.002,246.29c-4.142,0-7.5-3.358-7.5-7.5c0-5.961-4.85-10.812-10.812-10.812
		c-5.961,0-10.812,4.85-10.812,10.812c0,4.142-3.358,7.5-7.5,7.5s-7.5-3.358-7.5-7.5c0-14.232,11.579-25.812,25.812-25.812
		s25.812,11.579,25.812,25.812C170.502,242.932,167.144,246.29,163.002,246.29z"/>
	<path style="fill:#394049;" d="M385.621,246.29c-4.143,0-7.5-3.358-7.5-7.5c0-5.961-4.85-10.812-10.812-10.812
		s-10.812,4.85-10.812,10.812c0,4.142-3.357,7.5-7.5,7.5s-7.5-3.358-7.5-7.5c0-14.232,11.579-25.812,25.812-25.812
		c14.232,0,25.812,11.579,25.812,25.812C393.121,242.932,389.764,246.29,385.621,246.29z"/>
</g>
<g>
	<path style="fill:#E3637B;" d="M160.085,282.636h-30.79c-4.142,0-7.5-3.358-7.5-7.5s3.358-7.5,7.5-7.5h30.79
		c4.142,0,7.5,3.358,7.5,7.5C167.585,279.278,164.228,282.636,160.085,282.636z"/>
	<path style="fill:#E3637B;" d="M382.705,282.636h-30.791c-4.143,0-7.5-3.358-7.5-7.5s3.357-7.5,7.5-7.5h30.791
		c4.143,0,7.5,3.358,7.5,7.5C390.205,279.278,386.848,282.636,382.705,282.636z"/>
</g>
<path style="fill:#394049;" d="M273.976,264.895c-7.008,0-13.365-2.845-17.976-7.44c-4.611,4.595-10.968,7.44-17.976,7.44
	c-14.047,0-25.476-11.429-25.476-25.476c0-4.142,3.358-7.5,7.5-7.5s7.5,3.358,7.5,7.5c0,5.776,4.7,10.476,10.476,10.476
	s10.476-4.7,10.476-10.476c0-4.142,3.358-7.5,7.5-7.5c4.143,0,7.5,3.358,7.5,7.5c0,5.776,4.699,10.476,10.476,10.476
	c5.776,0,10.477-4.7,10.477-10.476c0-4.142,3.357-7.5,7.5-7.5s7.5,3.358,7.5,7.5C299.452,253.466,288.023,264.895,273.976,264.895z"
	/>
<g>
	<circle style="fill:#FFFFFF;" cx="136.79" cy="157.03" r="7.498"/>
	<circle style="fill:#FFFFFF;" cx="160.09" cy="106.51" r="7.498"/>
	<circle style="fill:#FFFFFF;" cx="167.58" cy="138.17" r="7.498"/>
	<circle style="fill:#FFFFFF;" cx="394.53" cy="418.42" r="7.498"/>
	<circle style="fill:#FFFFFF;" cx="351" cy="385.3" r="7.498"/>
	<circle style="fill:#FFFFFF;" cx="452.58" cy="239.42" r="7.498"/>
	<circle style="fill:#FFFFFF;" cx="452.58" cy="392.79" r="7.498"/>
	<circle style="fill:#FFFFFF;" cx="321.89" cy="433.42" r="7.498"/>
	<circle style="fill:#FFFFFF;" cx="367.31" cy="130.68" r="7.498"/>
	<circle style="fill:#FFFFFF;" cx="329.39" cy="95.11" r="7.498"/>
	<circle style="fill:#FFFFFF;" cx="289.95" cy="109.69" r="7.498"/>
	<circle style="fill:#FFFFFF;" cx="329.39" cy="138.17" r="7.498"/>
	<circle style="fill:#FFFFFF;" cx="104.6" cy="425.92" r="7.498"/>
	<circle style="fill:#FFFFFF;" cx="121.8" cy="377.31" r="7.498"/>
	<circle style="fill:#FFFFFF;" cx="73.38" cy="370.3" r="7.498"/>
	<circle style="fill:#FFFFFF;" cx="409.52" cy="361.63" r="7.498"/>
</g>
<g>
</g>
<g>
</g>
<g>
</g>
<g>
</g>
<g>
</g>
<g>
</g>
<g>
</g>
<g>
</g>
<g>
</g>
<g>
</g>
<g>
</g>
<g>
</g>
<g>
</g>
<g>
</g>
<g>
</g>
</svg>
