<svg id="Capa_1" enable-background="new 0 0 512 512" height="512" viewBox="0 0 512 512" width="512" xmlns="http://www.w3.org/2000/svg"><path d="m209.863 256.409c0-20.771 3.097-40.401 8.604-57.808l-50.93-24.773v165.161h61.154c-11.761-22.437-18.828-51.208-18.828-82.58z" fill="#aedb81"/><path d="m187.401 338.989v-123.871c0-9.122 7.395-16.516 16.516-16.516h14.554c2.808-8.866 6.253-17.206 10.22-24.774h-82.581c11.761 22.437 18.828 51.208 18.828 82.581s-7.067 60.143-18.828 82.581h41.291z" fill="#95cc81"/><path d="m209.863 91.266c0-20.771 3.097-40.401 8.604-57.808l-50.93-24.773v165.161h61.154c-11.761-22.437-18.828-51.208-18.828-82.58z" fill="#aedb81"/><path d="m187.401 173.846v-123.871c0-9.122 7.395-16.516 16.516-16.516h14.554c2.808-8.866 6.253-17.206 10.22-24.774h-82.581c11.761 22.437 18.828 51.208 18.828 82.581s-7.067 60.143-18.828 82.581h41.291z" fill="#95cc81"/><path d="m209.863 421.161c0-20.771 3.097-40.401 8.604-57.808l-50.93-24.773v165.161h61.154c-11.761-22.436-18.828-51.207-18.828-82.58z" fill="#aedb81"/><path d="m187.401 503.742v-123.871c0-9.122 7.395-16.516 16.516-16.516h14.554c2.808-8.866 6.253-17.206 10.22-24.774h-82.581c11.761 22.437 18.828 51.208 18.828 82.581s-7.067 60.143-18.828 82.581h41.291z" fill="#95cc81"/><path d="m341.992 256.409c0-20.771 3.097-40.401 8.604-57.808l-50.93-24.773v165.161h61.154c-11.761-22.437-18.828-51.208-18.828-82.58z" fill="#aedb81"/><path d="m319.53 338.989v-123.871c0-9.122 7.395-16.516 16.516-16.516h14.554c2.808-8.866 6.253-17.206 10.22-24.774h-82.58c11.761 22.437 18.828 51.208 18.828 82.581s-7.067 60.143-18.828 82.581h41.29z" fill="#95cc81"/><path d="m341.992 91.266c0-20.771 3.097-40.401 8.604-57.808l-50.93-24.773v165.161h61.154c-11.761-22.437-18.828-51.208-18.828-82.58z" fill="#aedb81"/><path d="m319.53 173.846v-123.871c0-9.122 7.395-16.516 16.516-16.516h14.554c2.808-8.866 6.253-17.206 10.22-24.774h-82.58c11.761 22.437 18.828 51.208 18.828 82.581s-7.067 60.143-18.828 82.581h41.29z" fill="#95cc81"/><path d="m429.54 367.496c-11.382 7.527-80.075 57.794-92.979 127.37-.831 4.483 1.968 8.831 6.444 9.742.556.113 1.105.165 1.653.165 3.847 0 7.29-2.698 8.081-6.609 6.813-33.428 24.512-58.436 38.51-73.806 3.602-3.955 8.309-6.796 13.574-7.746 14.384-2.598 29.988-8.798 44.871-18.641 19.212-12.706 33.428-28.891 40.83-44.686 1.327-2.832-.756-5.981-3.881-5.868-17.431.628-37.89 7.374-57.103 20.079z" fill="#aedb81"/><path d="m121.813 79.139c-2.874-3.049-4.986-6.611-6.706-10.432-5.567-12.368-14.219-24.982-25.649-36.413-15.573-15.572-33.349-26.033-49.698-30.503-4.011-1.097-7.737 2.63-6.641 6.641 4.469 16.349 14.931 34.126 30.503 49.698 11.182 11.182 23.494 19.687 35.603 25.26 4.056 1.867 7.835 4.247 10.872 7.52 13.69 14.75 36.014 44.602 36.014 82.51 0 4.56 3.694 8.258 8.258 8.258s8.258-3.698 8.258-8.258c0-44.223-25.292-77.814-40.814-94.281z" fill="#95cc81"/><path d="m228.691 16.516h-41.29c-4.561 0-8.258-3.697-8.258-8.258 0-4.561 3.697-8.258 8.258-8.258h41.29c4.561 0 8.258 3.697 8.258 8.258 0 4.561-3.697 8.258-8.258 8.258z" fill="#ffe09f"/><path d="m146.111 0h41.29v16.516h-41.29c-4.561 0-8.258-3.697-8.258-8.258 0-4.561 3.697-8.258 8.258-8.258z" fill="#f6d190"/><path d="m228.691 181.677h-41.29c-4.561 0-8.258-3.697-8.258-8.258 0-4.561 3.697-8.258 8.258-8.258h41.29c4.561 0 8.258 3.697 8.258 8.258 0 4.561-3.697 8.258-8.258 8.258z" fill="#ffe09f"/><path d="m146.111 165.161h41.29v16.516h-41.29c-4.561 0-8.258-3.697-8.258-8.258 0-4.56 3.697-8.258 8.258-8.258z" fill="#f6d190"/><path d="m228.691 346.839h-41.29c-4.561 0-8.258-3.697-8.258-8.258 0-4.561 3.697-8.258 8.258-8.258h41.29c4.561 0 8.258 3.697 8.258 8.258 0 4.56-3.697 8.258-8.258 8.258z" fill="#ffe09f"/><path d="m146.111 330.323h41.29v16.516h-41.29c-4.561 0-8.258-3.697-8.258-8.258 0-4.561 3.697-8.258 8.258-8.258z" fill="#f6d190"/><path d="m228.691 512h-41.29c-4.561 0-8.258-3.697-8.258-8.258 0-4.561 3.697-8.258 8.258-8.258h41.29c4.561 0 8.258 3.697 8.258 8.258 0 4.561-3.697 8.258-8.258 8.258z" fill="#ffe09f"/><path d="m146.111 495.484h41.29v16.516h-41.29c-4.561 0-8.258-3.697-8.258-8.258 0-4.561 3.697-8.258 8.258-8.258z" fill="#f6d190"/><path d="m59.202 112.996c-17.443 12.575-30.413 28.005-37.558 43.083-2.007 4.236 1.527 9.139 6.18 8.573 16.563-2.014 35.301-9.443 52.744-22.018s30.413-28.005 37.558-43.083c2.007-4.236-1.527-9.139-6.18-8.573-16.563 2.014-35.301 9.443-52.744 22.018z" fill="#aedb81"/><path d="m233.808 227.913c-13.125-13.399-28.151-22.302-41.875-25.916-2.941-.774-5.577 1.84-4.837 4.79 3.52 14.043 12.253 29.43 25.415 42.867 7.64 7.799 15.918 14.041 24.212 18.622 6.332 3.497 11.739 8.347 15.925 14.246 7.871 11.094 18.583 30.302 21.281 55.403.487 4.534 4.555 7.816 9.093 7.329 4.538-.488 7.816-4.559 7.329-9.093-4.839-45.02-46.634-98.132-56.543-108.248z" fill="#aedb81"/><path d="m443.066 452.616c15.478 16.779 25.373 35.705 28.868 52.693.672 3.268-2.325 6.033-5.529 5.1-16.652-4.853-34.718-16.241-50.196-33.02s-25.373-35.705-28.868-52.693c-.672-3.268 2.325-6.033 5.529-5.1 16.652 4.852 34.718 16.24 50.196 33.02z" fill="#c8eb82"/><path d="m360.82 16.516h-41.29c-4.561 0-8.258-3.697-8.258-8.258 0-4.561 3.697-8.258 8.258-8.258h41.29c4.561 0 8.258 3.697 8.258 8.258 0 4.561-3.697 8.258-8.258 8.258z" fill="#ffe09f"/><path d="m278.24 0h41.29v16.516h-41.29c-4.561 0-8.258-3.697-8.258-8.258 0-4.561 3.697-8.258 8.258-8.258z" fill="#f6d190"/><path d="m360.82 181.677h-41.29c-4.561 0-8.258-3.697-8.258-8.258 0-4.561 3.697-8.258 8.258-8.258h41.29c4.561 0 8.258 3.697 8.258 8.258 0 4.561-3.697 8.258-8.258 8.258z" fill="#ffe09f"/><path d="m278.24 165.161h41.29v16.516h-41.29c-4.561 0-8.258-3.697-8.258-8.258 0-4.56 3.697-8.258 8.258-8.258z" fill="#f6d190"/><path d="m341.992 421.161c0-20.771 3.097-40.401 8.604-57.808l-50.93-24.773v165.161h61.154c-11.761-22.436-18.828-51.207-18.828-82.58z" fill="#aedb81"/><path d="m319.53 503.742v-123.871c0-9.122 7.395-16.516 16.516-16.516h14.554c2.808-8.866 6.253-17.206 10.22-24.774h-82.58c11.761 22.437 18.828 51.208 18.828 82.581s-7.067 60.143-18.828 82.581h41.29z" fill="#95cc81"/><path d="m360.82 346.839h-41.29c-4.561 0-8.258-3.697-8.258-8.258 0-4.561 3.697-8.258 8.258-8.258h41.29c4.561 0 8.258 3.697 8.258 8.258 0 4.56-3.697 8.258-8.258 8.258z" fill="#ffe09f"/><path d="m278.24 330.323h41.29v16.516h-41.29c-4.561 0-8.258-3.697-8.258-8.258 0-4.561 3.697-8.258 8.258-8.258z" fill="#f6d190"/><path d="m360.82 512h-41.29c-4.561 0-8.258-3.697-8.258-8.258 0-4.561 3.697-8.258 8.258-8.258h41.29c4.561 0 8.258 3.697 8.258 8.258 0 4.561-3.697 8.258-8.258 8.258z" fill="#ffe09f"/><path d="m278.24 495.484h41.29v16.516h-41.29c-4.561 0-8.258-3.697-8.258-8.258 0-4.561 3.697-8.258 8.258-8.258z" fill="#f6d190"/><path d="m216.401 293.041c-12.953 9.58-21.85 22.204-25.785 34.861-.834 2.682.944 5.605 3.752 5.647 13.066.195 27.69-4.498 40.727-14.14 12.953-9.58 21.85-22.204 25.785-34.861.834-2.682-.944-5.605-3.752-5.647-13.065-.195-27.689 4.497-40.727 14.14z" fill="#c8eb82"/></svg>