<svg id="Layer_5" enable-background="new 0 0 64 64" height="512" viewBox="0 0 64 64" width="512" xmlns="http://www.w3.org/2000/svg"><path d="m40 54v6c0 1.1-.9 2-2 2h-12c-1.1 0-2-.9-2-2v-6c0-1.1.9-2 2-2h3 2 2 2 3c1.1 0 2 .9 2 2z" fill="#cf9e76"/><path d="m35.27 2.21c4.08 3.32 11.64 15.03 7.73 25.79 0 0-4-5-11-5-8 0-11 5-11 5-3.91-10.76 3.65-22.47 7.73-25.79 1.07-.14 2.16-.21 3.27-.21s2.2.07 3.27.21z" fill="#e6e9ed"/><path d="m28.73 2.21c-4.08 3.32-11.64 15.03-7.73 25.79-8-6-15 0-15 0 0-13.25 9.91-24.19 22.73-25.79z" fill="#fcd770"/><path d="m58 28s-7-6-15 0c3.91-10.76-3.65-22.47-7.73-25.79 12.82 1.6 22.73 12.54 22.73 25.79z" fill="#fcd770"/><g fill="#ff826e"><path d="m58 28-.98 1.02-.02-.02c-6 0-11 1-16.36 5 0 0-.04-.03-.11-.08l2.47-5.92c8-6 15 0 15 0z"/><path d="m43 28-2.47 5.92c-.65-.48-4.2-2.92-8.53-2.92s-7.88 2.44-8.53 2.92l-2.47-5.92s3-5 11-5c7 0 11 5 11 5z"/><path d="m23.36 34c-5.36-4-10.36-5-16.36-5l-.02.02-.98-1.02s7-6 15 0l2.47 5.92c-.07.05-.11.08-.11.08z"/></g><path d="m35.67 1.256c-.023-.017-.047-.039-.07-.056l-.032.043c-1.169-.155-2.358-.243-3.568-.243s-2.399.088-3.568.243l-.032-.043c-.023.017-.047.038-.07.056-13.157 1.797-23.33 13.102-23.33 26.744v.401l21.656 22.599h-.656c-1.654 0-3 1.346-3 3v6c0 1.654 1.346 3 3 3h12c1.654 0 3-1.346 3-3v-6c0-1.654-1.346-3-3-3h-.656l21.378-22.308.278-.291v-.401c0-13.642-10.173-24.947-23.33-26.744zm21.254 24.847c-2.397-1.325-7.035-3.008-12.265-.322 1.799-8.639-2.689-17.415-6.486-22.009 10.218 2.604 17.936 11.519 18.751 22.331zm-25.257 24.897-6.962-16.707c1.272-.801 4.071-2.293 7.295-2.293 3.223 0 6.023 1.492 7.295 2.293l-6.962 16.707zm-11.479-22.35 1.179 2.83c-4.844-2.842-9.379-3.418-13.614-3.473 2.114-1.257 7.019-3.272 12.435.643zm1.948-.52c.857-1.087 3.795-4.13 9.864-4.13 5.242 0 8.719 3.062 9.832 4.203l-1.757 4.217c-1.572-.953-4.563-2.42-8.075-2.42-3.513 0-6.503 1.467-8.076 2.42zm21.676.52c5.481-3.967 10.362-1.917 12.457-.644-4.241.053-8.784.626-13.636 3.474zm-8.96-25.482c3.675 3.161 10.198 13.27 7.687 22.936-1.768-1.592-5.373-4.104-10.539-4.104-5.625 0-8.938 2.317-10.576 3.941-2.385-9.64 4.074-19.634 7.724-22.773.937-.107 1.887-.168 2.852-.168s1.915.061 2.852.168zm-9.026.603c-3.792 4.59-8.272 13.357-6.478 22.014-5.233-2.692-9.873-1.009-12.272.317.815-10.811 8.533-19.726 18.75-22.331zm-16.467 26.289c4.625.241 8.818 1.325 13.387 4.731l6.754 16.209h-.073zm29.641 23.94v6c0 .552-.449 1-1 1h-12c-.551 0-1-.448-1-1v-6c0-.552.449-1 1-1h12c.551 0 1 .448 1 1zm-4.5-3 6.753-16.209c4.569-3.406 8.763-4.49 13.388-4.732l-20.068 20.941z"/></svg>