<?xml version="1.0" encoding="iso-8859-1"?>
<!-- Generator: Adobe Illustrator 19.0.0, SVG Export Plug-In . SVG Version: 6.00 Build 0)  -->
<svg version="1.1" id="Layer_1" xmlns="http://www.w3.org/2000/svg" xmlns:xlink="http://www.w3.org/1999/xlink" x="0px" y="0px"
	 viewBox="0 0 512.001 512.001" style="enable-background:new 0 0 512.001 512.001;" xml:space="preserve">
<circle style="fill:#E3637B;" cx="261.271" cy="97.689" r="25.373"/>
<path style="fill:#F9EFD1;" d="M315.453,110.004H207.092c-29.294,0-49.337,29.569-38.487,56.78l0,0H353.94l0,0
	C364.79,139.573,344.746,110.004,315.453,110.004z"/>
<path style="opacity:0.1;enable-background:new    ;" d="M356.382,144.864H166.164c-1.148,7.061-0.487,14.574,2.442,21.919l0,0
	h185.335l0,0C356.869,159.438,357.53,151.925,356.382,144.864z"/>
<path style="fill:#F5D96C;" d="M420.725,156.715H91.277c-19.384,0-36.163,13.472-40.352,32.398L0.446,417.188
	c-2.556,11.549,6.234,22.497,18.062,22.497h474.987c11.828,0,20.618-10.948,18.062-22.497l-50.479-228.076
	C456.888,170.186,440.109,156.715,420.725,156.715z"/>
<g>
	<path style="fill:#394049;" d="M161.124,339.84c-4.142,0-7.5-3.358-7.5-7.5v-16.68c0-4.142,3.358-7.5,7.5-7.5s7.5,3.358,7.5,7.5
		v16.68C168.624,336.482,165.266,339.84,161.124,339.84z"/>
	<path style="fill:#394049;" d="M350.878,339.84c-4.142,0-7.5-3.358-7.5-7.5v-16.68c0-4.142,3.358-7.5,7.5-7.5s7.5,3.358,7.5,7.5
		v16.68C358.378,336.482,355.02,339.84,350.878,339.84z"/>
</g>
<g>
	<path style="fill:#E3637B;" d="M174.246,370.285h-26.245c-4.142,0-7.5-3.358-7.5-7.5s3.358-7.5,7.5-7.5h26.245
		c4.142,0,7.5,3.358,7.5,7.5S178.388,370.285,174.246,370.285z"/>
	<path style="fill:#E3637B;" d="M364.001,370.285h-26.245c-4.142,0-7.5-3.358-7.5-7.5s3.358-7.5,7.5-7.5h26.245
		c4.142,0,7.5,3.358,7.5,7.5S368.143,370.285,364.001,370.285z"/>
</g>
<path style="fill:#394049;" d="M271.323,355.163c-5.892,0-11.269-2.244-15.322-5.922c-4.053,3.679-9.43,5.922-15.322,5.922
	c-12.584,0-22.822-10.238-22.822-22.822c0-4.142,3.358-7.5,7.5-7.5s7.5,3.358,7.5,7.5c0,4.313,3.509,7.822,7.822,7.822
	s7.822-3.509,7.822-7.822c0-4.142,3.358-7.5,7.5-7.5s7.5,3.358,7.5,7.5c0,4.313,3.509,7.822,7.822,7.822s7.822-3.509,7.822-7.822
	c0-4.142,3.358-7.5,7.5-7.5s7.5,3.358,7.5,7.5C294.145,344.925,283.908,355.163,271.323,355.163z"/>
<path style="fill:#F5B96E;" d="M511.556,417.188l-2.898-13.093H3.343l-2.898,13.093c-2.556,11.549,6.234,22.497,18.062,22.497
	h474.987C505.323,439.685,514.112,428.737,511.556,417.188z"/>
<path style="fill:#8D6A59;" d="M415.989,156.715v56.55c0,19.846-16.088,35.934-35.934,35.934c-19.846,0-35.934-16.088-35.934-35.934
	v-9.044c0-14.411-11.682-26.093-26.093-26.093c-14.411,0-26.093,11.682-26.093,26.093V266.7c0,19.846-16.088,35.934-35.934,35.934
	s-35.934-16.088-35.934-35.934v-52.664c0-11.499-9.322-20.821-20.821-20.821s-20.821,9.322-20.821,20.821v16.076
	c0,19.846-16.088,35.934-35.934,35.934s-35.934-16.088-35.934-35.934v-73.397L415.989,156.715L415.989,156.715z"/>
<g>
</g>
<g>
</g>
<g>
</g>
<g>
</g>
<g>
</g>
<g>
</g>
<g>
</g>
<g>
</g>
<g>
</g>
<g>
</g>
<g>
</g>
<g>
</g>
<g>
</g>
<g>
</g>
<g>
</g>
</svg>
